<svg xmlns="http://www.w3.org/2000/svg" width="80" height="80" viewBox="0 0 24 24">
<path fill="white" d="M21 3H3c-1.1 0-2 .9-2 2v3h2V5h18v14h-7v2h7c1.1 0 2-.9 2-2V5c0-1.1-.9-2-2-2zM1 18v3h3c0-1.66-1.34-3-3-3zm0-4v2c2.76 0 5 2.24 5 5h2c0-3.87-3.13-7-7-7zm0-4v2a9 9 0 0 1 9 9h2c0-6.08-4.93-11-11-11z"/>
<path transform="translate(5,50)" fill="white" d="M19 13H5v7h14v-7zm0-2a7 7 0 0 0-14 0h14zM6.382 3.968A8.962 8.962 0 0 1 12 2c2.125 0 4.078.736 5.618 1.968l1.453-1.453l1.414 1.414l-1.453 1.453A8.962 8.962 0 0 1 21 11v10a1 1 0 0 1-1 1H4a1 1 0 0 1-1-1V11c0-2.125.736-4.078 1.968-5.618L3.515 3.93l1.414-1.414l1.453 1.453zM9 9a1 1 0 1 1 0-2a1 1 0 0 1 0 2zm6 0a1 1 0 1 1 0-2a1 1 0 0 1 0 2z"/>
</svg>
