<?xml version="1.0" standalone="no"?>
<!DOCTYPE svg PUBLIC "-//W3C//DTD SVG 20010904//EN"
 "http://www.w3.org/TR/2001/REC-SVG-20010904/DTD/svg10.dtd">
<svg version="1.0" xmlns="http://www.w3.org/2000/svg"
 width="1280.000000pt" height="720.000000pt" viewBox="0 0 1280.000000 720.000000"
 preserveAspectRatio="xMidYMid meet">
<metadata>
Created by potrace 1.15, written by Peter Selinger 2001-2017
</metadata>
<g transform="translate(0.000000,720.000000) scale(0.100000,-0.100000)"
fill="#000000" stroke="none">
<path d="M5268 6630 c-79 -10 -169 -48 -217 -93 -44 -42 -87 -133 -101 -215
-7 -48 -10 -820 -8 -2722 l3 -2655 26 -67 c14 -36 40 -84 57 -105 37 -47 126
-96 200 -112 37 -8 392 -11 1174 -11 1204 0 1178 -1 1279 50 51 27 114 101
141 169 l23 56 3 1193 c2 1043 4 1192 17 1192 23 0 22 735 0 744 -12 4 -15 27
-15 121 0 96 3 115 15 115 13 0 15 27 15 180 0 152 -2 180 -15 180 -12 0 -15
111 -17 853 -3 802 -4 855 -22 903 -47 131 -148 205 -306 224 -100 12 -2149
12 -2252 0z m2482 -3030 l0 -2400 -1355 0 -1355 0 0 2400 0 2400 1355 0 1355
0 0 -2400z"/>
</g>
</svg>
